<svg id="Layer_1" data-name="Layer 1" xmlns="http://www.w3.org/2000/svg" viewBox="0 0 1966.19 663"><defs><style>.cls-1{fill:#be1e2d;}</style></defs><path class="cls-1" d="M534.8,1720.25v15.28H516.9V1610.24h95.53v15.29H534.8v61.74s16.29-32.58,65.57-32.58l.2,15.88C545.26,1670.57,534.8,1720.25,534.8,1720.25Z" transform="translate(-516.9 -1074.74)"/><path class="cls-1" d="M625.1,1735.53H605.79l55.71-125.29h17.7l55.5,125.29H715.4l-21.72-48.87C657.48,1680.43,625.1,1735.53,625.1,1735.53ZM686.44,1670l-16.29-36.8-25.55,58.32S662.3,1669.57,686.44,1670Z" transform="translate(-516.9 -1074.74)"/><path class="cls-1" d="M774.12,1735.94l-55.51-125.3h19.11L783,1713l45.25-102.37h19.1L792,1735.94Z" transform="translate(-516.9 -1074.74)"/><path class="cls-1" d="M914.89,1608.83c36.4,0,65.76,29,65.76,64.56,0,35.4-29.36,64.36-65.76,64.36-36,0-65.56-29-65.56-64.36C849.33,1637.79,878.89,1608.83,914.89,1608.83Zm0,113.23c26.55,0,47.06-21.92,47.06-48.67,0-27-20.51-48.87-47.06-48.87-26.34,0-46.86,21.92-46.86,48.87C868,1700.14,888.55,1722.06,914.89,1722.06Z" transform="translate(-516.9 -1074.74)"/><path class="cls-1" d="M1010.62,1610v69c0,26.55,17.69,43.24,39.61,43.24,21.72,0,39.62-16.49,39.62-43.24v-69h17.7v69c0,35.2-25.74,58.73-57.32,58.73s-57.51-23.94-57.51-58.73v-69Z" transform="translate(-516.9 -1074.74)"/><path class="cls-1" d="M1181.15,1694.51c18.7,22.32,38.61,36,49.47,41.63h-30c-39.22-21.92-59.33-74-59.33-74v74h-17.7v-125.3h59.13c22.52,0,41,17.5,41,37,0,12.87-7.65,23.73-18.1,30.17Zm-36-68.38a184.93,184.93,0,0,0,26.35,55.51c9.45-6.44,23.12-15.49,23.73-15.89,6.23-4.23,10.66-10.86,10.66-17.9,0-11.26-11.27-21.72-23.13-21.72Z" transform="translate(-516.9 -1074.74)"/><path class="cls-1" d="M1385.88,1680.83c11.06,4.63,15.88,11.87,16.69,19.31,2.61,25.14-24.74,37.61-55.31,37.61-30.37,0-57.72-15.89-55.1-40.63,2-20.31,30.16-23.13,31.77-32.58,1.81-9.25-18.3-11.46-21.11-24.33-4.23-17.9,19.91-31.58,44.44-31.58s45.65,12.87,44.65,31.58c-.61,10.66-8.45,18.9-8.45,18.9l-14.48-6.43s6.44-8,6.44-13.48c0-8.45-13.68-16.69-28.16-16.69-14.28,0-27.55,7.84-26.55,16.29,1.41,13.07,20.12,13.27,20.12,25.34,0,14.68-29.57,18.9-30.77,33.58-1.21,13.68,16.69,25.34,37.2,25.34s39.22-8.64,37.21-22.12c-2-15.48-33.59-20.11-33.59-20.11v-15.28s44.65,7.44,70.39-11.67v16.49C1407.8,1680.43,1385.88,1680.83,1385.88,1680.83Z" transform="translate(-516.9 -1074.74)"/><path class="cls-1" d="M1588.59,1706.57s-6.24-28-36.4-27.55v-16.69c61.94,1.21,58.12,73.2,58.12,73.2h-16.49a111.8,111.8,0,0,0-1.21-13.67c-11.67,8.65-27.35,15.28-42.44,15.28-37.2,0-67.57-28.76-67.57-64.35s30.37-64.36,67.57-64.36a68.59,68.59,0,0,1,52.7,24.34L1591.6,1644a52.25,52.25,0,0,0-41.43-19.91c-27.15,0-48.26,21.72-48.26,48.67,0,26.74,21.11,48.67,48.26,48.67C1564.86,1721.46,1578.93,1713.81,1588.59,1706.57Z" transform="translate(-516.9 -1074.74)"/><path class="cls-1" d="M1622.37,1610.24h55.91c25.94,0,41.22,14.08,39.41,33-1.4,12.47-8.24,17.7-16.08,24.14,12.06,6.23,23.53,20.71,23.53,33,0,18.1-16.29,35.19-41.43,35.19h-61.34Zm17.9,82.86c24.13-29.36,58.92-32.78,58.72-53.5,0-8-9-14.07-22.32-14.07h-36.4Zm.2,27.15h41.83c15.48,0,23.53-10.26,23.53-19.91,0-8.85-9.25-19.71-19.11-22.12C1686.72,1678.22,1652.94,1690.08,1640.47,1720.25Z" transform="translate(-516.9 -1074.74)"/><path class="cls-1" d="M1798.74,1608.83c36.4,0,65.76,29,65.76,64.56,0,35.4-29.36,64.36-65.76,64.36-36,0-65.56-29-65.56-64.36C1733.18,1637.79,1762.74,1608.83,1798.74,1608.83Zm0,113.23c26.55,0,47.06-21.92,47.06-48.67,0-27-20.51-48.87-47.06-48.87-26.35,0-46.86,21.92-46.86,48.87C1751.88,1700.14,1772.39,1722.06,1798.74,1722.06Z" transform="translate(-516.9 -1074.74)"/><path class="cls-1" d="M1894.26,1610.64v110h71.6v15.29h-89.3v-125.3Z" transform="translate(-516.9 -1074.74)"/><path class="cls-1" d="M1993.2,1735.53h-19.3l55.7-125.29h17.7l55.51,125.29H2083.5l-21.72-48.87C2025.58,1680.43,1993.2,1735.53,1993.2,1735.53Zm61.34-65.56-16.29-36.8-25.54,58.32S2030.41,1669.57,2054.54,1670Z" transform="translate(-516.9 -1074.74)"/><path class="cls-1" d="M2132.77,1686.06s20.31-43.24,74.61-43.24v-32.58h17.9v125.29h-17.9v-75.41c-60.13,0-74.61,60.93-74.61,60.93v14.48h-17.9V1610.24h17.9Z" transform="translate(-516.9 -1074.74)"/><path class="cls-1" d="M2256.65,1735.53h-19.3l55.7-125.29h17.7l55.51,125.29H2347l-21.72-48.87C2289,1680.43,2256.65,1735.53,2256.65,1735.53ZM2318,1670l-16.29-36.8-25.54,58.32S2293.86,1669.57,2318,1670Z" transform="translate(-516.9 -1074.74)"/><path class="cls-1" d="M2465.2,1735.94s-23.13-90.1-69-105v105h-17.9v-125.3h17.9c52.09,20.32,69.18,82.06,69.18,82.06v-82.06h17.7v125.3Z" transform="translate(-516.9 -1074.74)"/><path class="cls-1" d="M1666.56,1074.74v36.89H1479.21v63.93l-1.35.12A180.2,180.2,0,0,0,1436,1185V1074.74Z" transform="translate(-516.9 -1074.74)"/><path class="cls-1" d="M1501.38,1315.6v2.68c.4-.86.82-1.75,1.26-2.66Zm-4.48-78.74,12.11.64C1505,1237.09,1500.93,1236.88,1496.9,1236.86Zm-60.89,19.4,7-4.65Q1439.4,1253.8,1436,1256.26Z" transform="translate(-516.9 -1074.74)"/><path class="cls-1" d="M1543.88,1246.87c-24,16.16-39.62,37.14-49.46,55.11-2.55,4.65-4.71,9.1-6.53,13.21a139.29,139.29,0,0,0-8.68,25v36.87H1436V1250.87l7-4.65a100.85,100.85,0,0,1,36.21-13.32v27.74s5.25-10.47,17.69-23.78l12.11.64A110.9,110.9,0,0,1,1543.88,1246.87Z" transform="translate(-516.9 -1074.74)"/><path class="cls-1" d="M1443,1251.61l-7,4.65Q1439.4,1253.8,1443,1251.61Z" transform="translate(-516.9 -1074.74)"/><path class="cls-1" d="M1509,1237.5l-12.11-.64C1500.93,1236.88,1505,1237.09,1509,1237.5Z" transform="translate(-516.9 -1074.74)"/><path class="cls-1" d="M1443,1251.61l-7,4.65Q1439.4,1253.8,1443,1251.61Z" transform="translate(-516.9 -1074.74)"/><path class="cls-1" d="M1509,1237.5l-12.11-.64C1500.93,1236.88,1505,1237.09,1509,1237.5Z" transform="translate(-516.9 -1074.74)"/><path class="cls-1" d="M1509,1237.5l-12.11-.64C1500.93,1236.88,1505,1237.09,1509,1237.5Z" transform="translate(-516.9 -1074.74)"/><path class="cls-1" d="M1502.64,1315.62c-.44.91-.86,1.8-1.26,2.66v-2.68Z" transform="translate(-516.9 -1074.74)"/><path class="cls-1" d="M1501.38,1315.6v2.68c.4-.86.82-1.75,1.26-2.66Z" transform="translate(-516.9 -1074.74)"/><path class="cls-1" d="M1641.64,1492.26h-39.8a265.07,265.07,0,0,0-2.91-33c-28.15,20.87-66,36.89-102.41,36.89-89.79,0-163.08-69.41-163.08-155.32,0-60.43,36.28-112.73,89.09-138.39,4.38-2.13,8.89-4.08,13.48-5.84a167.68,167.68,0,0,1,43.2-10.2c4.45-.46,8.94-.73,13.48-.84,1.27,0,2.55,0,3.83,0a168.56,168.56,0,0,1,40.73,5,164.77,164.77,0,0,1,65.4,32.94,167.57,167.57,0,0,1,12.74,11.73q4.3,4.36,8.29,9.1l-27.18,27.18a134.52,134.52,0,0,0-25.5-24.29,1.7,1.7,0,0,0-.22-.15,123.86,123.86,0,0,0-60.4-22.91,136.66,136.66,0,0,0-13.86-.7,120.16,120.16,0,0,0-17.31,1.25,114.33,114.33,0,0,0-56.68,25c-26.11,21.5-42.49,54.32-42.49,91.17,0,64.56,51,117.46,116.48,117.46,35.43,0,69.41-18.44,92.7-35.92,0,0-15-67.46-87.84-66.49v-37.6c.4-.86.82-1.75,1.26-2.66C1650.81,1319.49,1641.64,1492.26,1641.64,1492.26Z" transform="translate(-516.9 -1074.74)"/></svg>